<svg width="96" height="96" viewBox="0 0 96 96" fill="none" xmlns="http://www.w3.org/2000/svg">
  <path d="M48 20.5715C44.6095 20.5715 41.2951 21.5769 38.476 23.4606C35.6569 25.3443 33.4596 28.0217 32.1621 31.1541C30.8646 34.2865 30.5251 37.7334 31.1866 41.0588C31.848 44.3842 33.4807 47.4387 35.8782 49.8362C38.2757 52.2337 41.3302 53.8664 44.6556 54.5279C47.981 55.1893 51.4279 54.8498 54.5603 53.5523C57.6928 52.2548 60.3701 50.0576 62.2538 47.2384C64.1375 44.4193 65.1429 41.1049 65.1429 37.7144C65.1429 33.1678 63.3368 28.8075 60.1219 25.5926C56.907 22.3777 52.5466 20.5715 48 20.5715Z" fill="#DADEEB"/>
  <path d="M48 0C38.5065 0 29.2262 2.81515 21.3326 8.08946C13.4391 13.3638 7.28681 20.8603 3.6538 29.6312C0.0207976 38.402 -0.929762 48.0532 0.922328 57.3643C2.77442 66.6754 7.34597 75.2282 14.0589 81.9411C20.7718 88.654 29.3246 93.2256 38.6357 95.0777C47.9468 96.9298 57.598 95.9792 66.3688 92.3462C75.1397 88.7132 82.6362 82.5609 87.9105 74.6674C93.1849 66.7738 96 57.4935 96 48C95.9855 35.2741 90.9237 23.0735 81.9251 14.0749C72.9265 5.07631 60.7259 0.014519 48 0ZM75.4011 78.6034C75.3328 74.1063 73.5005 69.8159 70.2991 66.6569C67.0977 63.4978 62.7834 61.7227 58.2857 61.7143H37.7143C33.2166 61.7227 28.9023 63.4978 25.7009 66.6569C22.4995 69.8159 20.6672 74.1063 20.5989 78.6034C14.3814 73.0517 9.99681 65.7424 8.02574 57.6434C6.05467 49.5444 6.59007 41.0377 9.56106 33.2498C12.5321 25.4618 17.7985 18.76 24.663 14.0317C31.5275 9.30331 39.6663 6.77152 48.0017 6.77152C56.3371 6.77152 64.4759 9.30331 71.3404 14.0317C78.205 18.76 83.4714 25.4618 86.4424 33.2498C89.4134 41.0377 89.9488 49.5444 87.9777 57.6434C86.0066 65.7424 81.6221 73.0517 75.4046 78.6034H75.4011Z" fill="#DADEEB"/>
</svg>

