<svg width="8" height="13" viewBox="0 0 8 13" fill="none" xmlns="http://www.w3.org/2000/svg">
<path d="M4.66675 4.99992H7.66675L7.33342 6.33325H4.66675V12.3333H3.33341V6.33325H0.666748V4.99992H3.33341V3.75192C3.33341 2.56325 3.45742 2.13192 3.68941 1.69725C3.91675 1.26779 4.26795 0.916591 4.69741 0.689252C5.13208 0.457252 5.56342 0.333252 6.75208 0.333252C7.10008 0.333252 7.40542 0.366585 7.66675 0.433252V1.66659H6.75208C5.86941 1.66659 5.60075 1.71859 5.32675 1.86525C5.12408 1.97325 4.97341 2.12392 4.86542 2.32659C4.71875 2.60059 4.66675 2.86925 4.66675 3.75192V4.99992Z" fill="white"/>
</svg>
