<svg width="14" height="14" viewBox="0 0 14 14" fill="none" xmlns="http://www.w3.org/2000/svg">
<path d="M6.99992 4.99992C6.46949 4.99992 5.96078 5.21063 5.5857 5.5857C5.21063 5.96078 4.99992 6.46949 4.99992 6.99992C4.99992 7.53035 5.21063 8.03906 5.5857 8.41413C5.96078 8.78921 6.46949 8.99992 6.99992 8.99992C7.53035 8.99992 8.03906 8.78921 8.41413 8.41413C8.78921 8.03906 8.99992 7.53035 8.99992 6.99992C8.99992 6.46949 8.78921 5.96078 8.41413 5.5857C8.03906 5.21063 7.53035 4.99992 6.99992 4.99992ZM6.99992 3.66659C7.88397 3.66659 8.73182 4.01777 9.35694 4.6429C9.98206 5.26802 10.3333 6.11586 10.3333 6.99992C10.3333 7.88397 9.98206 8.73182 9.35694 9.35694C8.73182 9.98206 7.88397 10.3333 6.99992 10.3333C6.11586 10.3333 5.26802 9.98206 4.6429 9.35694C4.01777 8.73182 3.66659 7.88397 3.66659 6.99992C3.66659 6.11586 4.01777 5.26802 4.6429 4.6429C5.26802 4.01777 6.11586 3.66659 6.99992 3.66659ZM11.3333 3.49992C11.3333 3.72093 11.2455 3.93289 11.0892 4.08917C10.9329 4.24545 10.7209 4.33325 10.4999 4.33325C10.2789 4.33325 10.0669 4.24545 9.91066 4.08917C9.75438 3.93289 9.66659 3.72093 9.66659 3.49992C9.66659 3.2789 9.75438 3.06694 9.91066 2.91066C10.0669 2.75438 10.2789 2.66659 10.4999 2.66659C10.7209 2.66659 10.9329 2.75438 11.0892 2.91066C11.2455 3.06694 11.3333 3.2789 11.3333 3.49992ZM6.99992 1.66659C5.35059 1.66659 5.08125 1.67125 4.31392 1.70525C3.79125 1.72992 3.44059 1.79992 3.11525 1.92659C2.82592 2.03859 2.61725 2.17259 2.39525 2.39525C2.18659 2.59685 2.02615 2.84297 1.92592 3.11525C1.79925 3.44192 1.72925 3.79192 1.70525 4.31392C1.67059 5.04992 1.66659 5.30725 1.66659 6.99992C1.66659 8.64925 1.67125 8.91858 1.70525 9.68592C1.72992 10.2079 1.79992 10.5593 1.92592 10.8839C2.03925 11.1739 2.17259 11.3826 2.39392 11.6039C2.61859 11.8279 2.82725 11.9619 3.11392 12.0726C3.44325 12.1999 3.79392 12.2706 4.31392 12.2946C5.04992 12.3293 5.30725 12.3333 6.99992 12.3333C8.64925 12.3333 8.91858 12.3286 9.68592 12.2946C10.2073 12.2699 10.5586 12.1999 10.8839 12.0739C11.1726 11.9613 11.3826 11.8273 11.6039 11.6059C11.8286 11.3813 11.9626 11.1726 12.0733 10.8859C12.1999 10.5573 12.2706 10.2059 12.2946 9.68592C12.3293 8.94992 12.3333 8.69259 12.3333 6.99992C12.3333 5.35059 12.3286 5.08125 12.2946 4.31392C12.2699 3.79259 12.1999 3.44059 12.0733 3.11525C11.9728 2.84325 11.8126 2.59723 11.6046 2.39525C11.4031 2.18648 11.1569 2.02603 10.8846 1.92592C10.5579 1.79925 10.2073 1.72925 9.68592 1.70525C8.94992 1.67059 8.69259 1.66659 6.99992 1.66659ZM6.99992 0.333252C8.81125 0.333252 9.03725 0.339919 9.74792 0.373252C10.4579 0.406585 10.9413 0.517919 11.3666 0.683252C11.8066 0.852585 12.1773 1.08192 12.5479 1.45192C12.8869 1.78518 13.1492 2.18831 13.3166 2.63325C13.4813 3.05792 13.5933 3.54192 13.6266 4.25192C13.6579 4.96259 13.6666 5.18859 13.6666 6.99992C13.6666 8.81125 13.6599 9.03725 13.6266 9.74792C13.5933 10.4579 13.4813 10.9413 13.3166 11.3666C13.1497 11.8118 12.8873 12.215 12.5479 12.5479C12.2146 12.8868 11.8115 13.1491 11.3666 13.3166C10.9419 13.4813 10.4579 13.5933 9.74792 13.6266C9.03725 13.6579 8.81125 13.6666 6.99992 13.6666C5.18859 13.6666 4.96259 13.6599 4.25192 13.6266C3.54192 13.5933 3.05859 13.4813 2.63325 13.3166C2.18814 13.1496 1.78494 12.8872 1.45192 12.5479C1.11286 12.2147 0.85054 11.8116 0.683252 11.3666C0.517919 10.9419 0.406585 10.4579 0.373252 9.74792C0.341919 9.03725 0.333252 8.81125 0.333252 6.99992C0.333252 5.18859 0.339919 4.96259 0.373252 4.25192C0.406585 3.54125 0.517919 3.05859 0.683252 2.63325C0.850076 2.18804 1.11245 1.7848 1.45192 1.45192C1.78503 1.11274 2.1882 0.850405 2.63325 0.683252C3.05859 0.517919 3.54125 0.406585 4.25192 0.373252C4.96259 0.341919 5.18859 0.333252 6.99992 0.333252Z" fill="white"/>
</svg>
